<?xml version="1.0" encoding="UTF-8" standalone="no"?>
<!-- Generator: Adobe Illustrator 19.2.0, SVG Export Plug-In . SVG Version: 6.00 Build 0)  -->

<svg
   xmlns:dc="http://purl.org/dc/elements/1.1/"
   xmlns:cc="http://creativecommons.org/ns#"
   xmlns:rdf="http://www.w3.org/1999/02/22-rdf-syntax-ns#"
   xmlns:svg="http://www.w3.org/2000/svg"
   xmlns="http://www.w3.org/2000/svg"
   xmlns:sodipodi="http://sodipodi.sourceforge.net/DTD/sodipodi-0.dtd"
   xmlns:inkscape="http://www.inkscape.org/namespaces/inkscape"
   version="1.1"
   id="svg5740"
   x="0px"
   y="0px"
   viewBox="0 0 453.02106 452.89808"
   xml:space="preserve"
   inkscape:version="0.91 r13725"
   sodipodi:docname="openlp-logo.svg"
   inkscape:export-filename="/home/raoul/Dropbox/OpenLPNewBrand/wiki.png"
   inkscape:export-xdpi="23.68"
   inkscape:export-ydpi="23.68"
   width="453.02106"
   height="452.89807"><metadata
     id="metadata3420"><rdf:RDF><cc:Work
         rdf:about=""><dc:format>image/svg+xml</dc:format><dc:type
           rdf:resource="http://purl.org/dc/dcmitype/StillImage" /><dc:title></dc:title></cc:Work></rdf:RDF></metadata><defs
     id="defs3418" /><sodipodi:namedview
     pagecolor="#ffffff"
     bordercolor="#666666"
     borderopacity="1"
     objecttolerance="10"
     gridtolerance="10"
     guidetolerance="10"
     inkscape:pageopacity="0"
     inkscape:pageshadow="2"
     inkscape:window-width="1366"
     inkscape:window-height="739"
     id="namedview3416"
     showgrid="false"
     inkscape:zoom="1"
     inkscape:cx="151.21623"
     inkscape:cy="240.04907"
     inkscape:window-x="1920"
     inkscape:window-y="312"
     inkscape:window-maximized="1"
     inkscape:current-layer="svg5740"
     fit-margin-left="0"
     fit-margin-top="0"
     fit-margin-right="0"
     fit-margin-bottom="0"
     showguides="true"
     inkscape:guide-bbox="true"><inkscape:grid
       type="xygrid"
       id="grid4307"
       originx="-7.1894622"
       originy="-7.2509281" /><sodipodi:guide
       position="368,452.89804"
       orientation="0,1"
       id="guide3418"
       inkscape:label=""
       inkscape:color="rgb(0,0,255)" /><sodipodi:guide
       position="-1.6629762e-07,295.00004"
       orientation="1,0"
       id="guide3420"
       inkscape:label=""
       inkscape:color="rgb(0,0,255)" /><sodipodi:guide
       position="453.021,273.00004"
       orientation="1,0"
       id="guide3422"
       inkscape:label=""
       inkscape:color="rgb(0,0,255)" /><sodipodi:guide
       position="362,2.6917146e-05"
       orientation="0,1"
       id="guide3424"
       inkscape:label=""
       inkscape:color="rgb(0,0,255)" /></sodipodi:namedview><style
     type="text/css"
     id="style3407">
	.st0{fill:url(#rect4108_1_);}
	.st1{fill:#FFFFFF;}
</style><linearGradient
     id="rect4108_1_"
     gradientUnits="userSpaceOnUse"
     x1="472.42209"
     y1="595.45251"
     x2="58.062099"
     y2="524.92249"
     gradientTransform="matrix(0.96923727,0,0,0.96897412,28.933406,-281.34151)"><stop
       offset="0"
       style="stop-color:#1E468C"
       id="stop3410" /><stop
       offset="1"
       style="stop-color:#507FDA"
       id="stop3412" /></linearGradient><g
     id="g3567"
     inkscape:export-filename="/home/raoul/Projects/OpenLP/OpenLP/new-branding/resources/images/openlp-splash-screen.png"
     inkscape:export-xdpi="73.526482"
     inkscape:export-ydpi="73.526482"
     transform="translate(-30,-30)"><path
       inkscape:export-filename="/home/raoul/Projects/OpenLP/WebSite/new-brand/themes/openlp2v2/assets/images/logo.png"
       inkscape:export-ydpi="11.92"
       inkscape:export-xdpi="11.92"
       id="rect4108"
       d="M 256.50947,30 A 226.51075,226.44925 0 0 0 30,256.44798 226.51075,226.44925 0 0 0 256.50947,482.89808 226.51075,226.44925 0 0 0 483.02107,256.44798 226.51075,226.44925 0 0 0 256.50947,30 Z"
       style="fill:url(#rect4108_1_)"
       inkscape:connector-curvature="0" /><path
       inkscape:export-filename="/home/raoul/Projects/OpenLP/WebSite/new-brand/themes/openlp2v2/assets/images/logo.png"
       inkscape:export-ydpi="11.92"
       inkscape:export-xdpi="11.92"
       style="fill:#ffffff"
       inkscape:connector-curvature="0"
       d="m 256.51033,46.633891 c -115.94546,0 -209.871922,94.007299 -209.871922,209.814939 0,115.80763 93.926462,209.81494 209.871922,209.81494 115.94546,0 209.87192,-94.00731 209.87192,-209.81494 0,-115.80764 -93.92646,-209.814939 -209.87192,-209.814939 z m -0.63823,17.546612 c 106.15923,0 192.32054,86.137907 192.32054,192.268327 0,15.73878 -1.9147,31.37121 -5.74409,46.57828 L 308.31348,195.51423 169.92354,84.492035 C 196.6229,71.092804 225.98157,64.180503 255.8721,64.180503 Z M 121.20517,119.26623 289.91113,219.54777 426.49275,300.7939 289.2729,233.15969 102.27095,140.85388 c 5.74409,-7.6567 12.12641,-14.88804 18.93422,-21.58765 z M 74.295122,192.962 276.93375,260.38352 416.8129,306.9618 276.93375,272.29395 66.955456,220.39852 c 1.701951,-9.3582 4.148507,-18.5037 7.339666,-27.43652 z m -9.467106,86.3506 206.361644,22.11936 144.6659,15.52609 -149.13352,-4.25372 -196.469053,-5.63619 c -2.446555,-9.03916 -4.254879,-18.39735 -5.424971,-27.75554 l 0,0 z M 421.59964,325.99722 263.42451,355.24157 111.31257,383.42249 C 105.143,376.40385 99.39891,368.85349 94.293055,360.9841 L 267.9985,342.4804 421.59964,325.99722 Z m 11.91366,4.46641 c -40.84684,98.04833 -153.49476,144.52027 -251.56973,103.57818 -8.50976,-3.50933 -16.80677,-7.76305 -24.6783,-12.44215 l 114.34988,-37.7518 161.89815,-53.38423 z"
       class="st1"
       id="path6317" /></g></svg>