<?xml version="1.0" encoding="UTF-8" standalone="no"?>
<svg
   xmlns:dc="http://purl.org/dc/elements/1.1/"
   xmlns:cc="http://creativecommons.org/ns#"
   xmlns:rdf="http://www.w3.org/1999/02/22-rdf-syntax-ns#"
   xmlns:svg="http://www.w3.org/2000/svg"
   xmlns="http://www.w3.org/2000/svg"
   xmlns:xlink="http://www.w3.org/1999/xlink"
   style="display:inline"
   version="1.0"
   id="svg5740"
   height="467.39178"
   width="467.39178">
  <defs
     id="defs5742">
    <linearGradient
       id="linearGradient3208">
      <stop
         id="stop3210"
         offset="0"
         style="stop-color:#ffffff;stop-opacity:0.25098041;" />
      <stop
         id="stop3212"
         offset="1"
         style="stop-color:#ffffff;stop-opacity:0;" />
    </linearGradient>
    <linearGradient
       id="linearGradient3195">
      <stop
         id="stop3197"
         offset="0"
         style="stop-color:#cdcdff;stop-opacity:1;" />
      <stop
         id="stop3199"
         offset="1"
         style="stop-color:#ebebff;stop-opacity:1;" />
    </linearGradient>
    <linearGradient
       id="linearGradient6359">
      <stop
         id="stop6361"
         offset="0"
         style="stop-color:#000d26;stop-opacity:1;" />
      <stop
         id="stop6363"
         offset="1"
         style="stop-color:#507fda;stop-opacity:1;" />
    </linearGradient>
    <filter
       color-interpolation-filters="sRGB"
       id="filter6926">
      <feGaussianBlur
         id="feGaussianBlur6928"
         stdDeviation="3.5771872" />
    </filter>
    <linearGradient
       y2="436.03787"
       x2="418.20981"
       y1="384.05795"
       x1="117.59262"
       gradientUnits="userSpaceOnUse"
       id="linearGradient4053"
       xlink:href="#linearGradient3195" />
    <linearGradient
       y2="371.85938"
       x2="201.10622"
       y1="480.55844"
       x1="815.75"
       gradientTransform="matrix(0.6515729,0,0,0.6515729,-72.086668,-5.3154816)"
       gradientUnits="userSpaceOnUse"
       id="linearGradient4055"
       xlink:href="#linearGradient6359" />
    <linearGradient
       y2="104.30029"
       x2="469.44925"
       y1="276.68851"
       x1="470.25891"
       gradientTransform="matrix(0.7247086,0,0,0.7843464,-109.42065,-2.1325924)"
       gradientUnits="userSpaceOnUse"
       id="linearGradient4057"
       xlink:href="#linearGradient3208" />
  </defs>
  <metadata
     id="metadata5745">
    <rdf:RDF>
      <cc:Work
         rdf:about="">
        <dc:format>image/svg+xml</dc:format>
        <dc:type
           rdf:resource="http://purl.org/dc/dcmitype/StillImage" />
        <dc:title></dc:title>
      </cc:Work>
    </rdf:RDF>
  </metadata>
  <g
     transform="translate(-11.872025,-13.171852)"
     style="display:inline"
     id="layer1" />
  <g
     transform="translate(-11.872025,-13.171852)"
     style="display:inline"
     id="layer5" />
  <g
     transform="translate(-11.872025,-13.171852)"
     style="display:inline"
     id="layer3" />
  <g
     transform="translate(-11.872025,-13.171852)"
     style="display:inline"
     id="layer2" />
  <g
     transform="translate(-11.872025,-13.171852)"
     style="display:inline"
     id="layer6">
    <g
       transform="translate(9.8817328,9.8817328)"
       id="g4018">
      <path
         style="fill:#000000;fill-opacity:1;fill-rule:nonzero;stroke:none;display:inline;filter:url(#filter6926)"
         id="path6903"
         d="M 833.03006,395.26932 A 357.71872,357.71872 0 0 1 475.31134,752.98804 357.71872,357.71872 0 0 1 117.59262,395.26932 357.71872,357.71872 0 0 1 475.31134,37.550598 357.71872,357.71872 0 0 1 833.03006,395.26932 Z"
         transform="matrix(0.6379835,0,0,0.6379835,-67.554612,-15.189295)" />
      <path
         transform="matrix(0.6379835,0,0,0.6379835,-67.554612,-15.189295)"
         d="M 833.03006,395.26932 A 357.71872,357.71872 0 0 1 475.31134,752.98804 357.71872,357.71872 0 0 1 117.59262,395.26932 357.71872,357.71872 0 0 1 475.31134,37.550598 357.71872,357.71872 0 0 1 833.03006,395.26932 Z"
         id="path6900"
         style="fill:#051e52;fill-opacity:1;fill-rule:nonzero;stroke:none;display:inline" />
      <path
         style="fill:url(#linearGradient4053);fill-opacity:1;fill-rule:nonzero;stroke:none;display:inline"
         id="path6317"
         d="M 833.03006,395.26932 A 357.71872,357.71872 0 0 1 475.31134,752.98804 357.71872,357.71872 0 0 1 117.59262,395.26932 357.71872,357.71872 0 0 1 475.31134,37.550598 357.71872,357.71872 0 0 1 833.03006,395.26932 Z"
         transform="matrix(0.6317287,0,0,0.6317287,-64.581662,-12.716988)" />
      <path
         style="fill:url(#linearGradient4055);fill-opacity:1;fill-rule:nonzero;stroke:none;display:inline"
         d="m 235.67972,13.233984 c -35.92776,0 -69.88078,8.488655 -99.97572,23.558433 L 296.72396,165.96674 452.81639,291.19091 c 4.32451,-17.35817 6.61754,-35.51197 6.61754,-54.20272 0,-123.50655 -100.24766,-223.754205 -223.75421,-223.754206 z M 79.118968,77.210299 C 71.146114,85.023824 63.764822,93.431949 57.026574,102.35694 L 274.63156,209.66285 434.20584,288.36064 275.3035,193.86221 79.118968,77.210299 z M 24.488653,162.95322 c -3.62786,10.33827 -6.504275,21.02069 -8.592618,31.98816 L 260.17479,255.29332 422.98657,295.52794 260.21551,241.36595 24.488653,162.95322 z M 13.513722,263.49906 c 1.305042,11.03747 3.397359,21.8274 6.251027,32.31395 l 228.539191,6.51573 173.46093,4.96824 L 253.55725,289.23619 13.513722,263.49906 z M 428.50457,317.76287 249.79034,336.84174 47.782384,358.40473 c 5.959201,9.19899 12.564704,17.94104 19.771165,26.14436 L 244.45559,351.80755 428.50457,317.76287 z m 13.78484,5.21258 -188.36565,62.18449 -133.00232,43.89972 c 33.5632,20.10936 72.81152,31.66237 114.75828,31.66238 93.04288,0 172.8858,-56.87905 206.60969,-137.74659 z"
         id="path6327" />
      <path
         style="fill:url(#linearGradient4057);fill-opacity:1;fill-rule:nonzero;stroke:none;display:inline"
         d="m 235.67972,13.233984 c -35.92776,0 -69.88078,8.488655 -99.97572,23.558433 l 161.01996,129.174323 52.55342,42.16899 c 39.1477,-4.87501 74.57645,-12.22557 104.45528,-21.44082 C 430.89209,87.375898 341.89666,13.233985 235.67972,13.233984 z M 79.118968,77.210299 c -7.972854,7.813525 -15.354146,16.22165 -22.092394,25.146641 l 217.604986,107.30591 8.32792,4.11306 c 7.91353,-0.38016 15.72478,-0.85776 23.43626,-1.42532 L 275.3035,193.86221 79.118968,77.210299 z M 24.488653,162.95322 c -2.661786,7.58527 -4.921793,15.36128 -6.760069,23.29373 42.624133,13.3171 96.712956,22.78306 156.947626,26.67377 L 24.488653,162.95322 z"
         id="path3203" />
    </g>
  </g>
</svg>
